<svg width="57" height="56" viewBox="0 0 57 56" fill="none" xmlns="http://www.w3.org/2000/svg">
<rect x="1" y="0.5" width="55" height="55" rx="27.5" stroke="white" stroke-opacity="0.2"/>
<rect x="3.5" y="3" width="50" height="50" rx="25" fill="white"/>
<path d="M22.9438 37V34.528L27.7918 29.464C28.7518 28.456 29.4878 27.656 29.9998 27.064C30.5278 26.456 30.8958 25.936 31.1038 25.504C31.3118 25.072 31.4158 24.632 31.4158 24.184C31.4158 23.432 31.1758 22.84 30.6958 22.408C30.2318 21.976 29.6318 21.76 28.8958 21.76C28.1278 21.76 27.4638 21.984 26.9038 22.432C26.3438 22.864 25.9358 23.504 25.6798 24.352L22.8238 23.464C23.0158 22.52 23.4078 21.704 23.9998 21.016C24.5918 20.312 25.3118 19.776 26.1598 19.408C27.0238 19.024 27.9358 18.832 28.8958 18.832C30.0478 18.832 31.0558 19.04 31.9198 19.456C32.7998 19.872 33.4798 20.456 33.9598 21.208C34.4558 21.96 34.7038 22.84 34.7038 23.848C34.7038 24.488 34.5838 25.12 34.3438 25.744C34.1038 26.368 33.7438 27.008 33.2638 27.664C32.7838 28.304 32.1598 29.024 31.3918 29.824L27.1918 34.24H34.9438V37H22.9438Z" fill="#0062FF"/>
</svg>
