<svg xmlns="http://www.w3.org/2000/svg" width="1440" height="804" fill="none"><path fill="url(#a)" fill-opacity=".3" d="M-537 252.719c64.44-3.168 128.242-10.331 187.315-48.329 23.842-15.331 46.325-35.406 70.163-50.755 87.195-56.1429 185.1532-45.503 279.4843-50.401 20.2038-1.05 42.6285-4.429 56.1516-27.7801l-2.1657 5.9534c5.9283-7.2948 11.6253-15.0632 17.8802-21.6558C85.223 45.6244 102.487 34.9677 119.581 28.9173c4.365-1.8037 8.862-3.1051 13.468-3.8243a98 98 0 0 1 4.236-.7877c.03-.1027.059-.1941.059-.1941.411-1.347 9.151-1.4098 17.106-1.1472 7.954-.2626 16.695-.1998 17.106 1.1472 0 0 .025.0913.077.2569 1.406.2226 2.815.4338 4.217.7192 4.288.6678 8.48 1.8322 12.558 3.4419 13.494 4.6063 26.635 12.0322 38.774 21.964 4.978 4.0698 9.456 9.1384 13.755 14.578 40.191 17.3178 84.401-6.7011 125.573 6.6383 30.294 9.8119 55.703 38.8085 79.523 67.9985 11.379 13.944 21.668 30.651 34.079 41.999 14.775 13.505 30.614 24.173 47.067 31.65.521.24 1.049.468 1.574.696 22.935 6.696 45.848 16.513 68.717 23.66 22.083-9.675 44.952-14.887 65.751-1.713 6.097 3.865 11.764 9.196 17.388 14.635.521-.097 1.05-.159 1.589-.159 2.063 0 4.013.742 5.76 2.032 7.474.879 14.947 1.895 22.406 3.23 30.611 5.491 61.35 10.999 92.144 13.18 42 2.968 95.454 28.186 95.454 28.186h-721.04c-3.219.616-6.486.97-9.804.97-3.319 0-6.586-.348-9.805-.97h-5.748c-3.219.616-6.487.97-9.805.97s-6.585-.348-9.805-.97h-453.191c-31.202.097-62.399.079-93.601 0H-537z"/><path fill="url(#b)" fill-opacity=".7" d="M-537 678.702c64.44-3.168 128.242-10.331 187.315-48.329 23.842-15.331 46.325-35.406 70.163-50.755 87.195-56.143 185.1532-45.503 279.4843-50.4 20.2038-1.051 42.6285-4.43 56.1516-27.781l-2.1657 5.954c5.9283-7.295 11.6252-15.064 17.8802-21.656 13.3946-14.127 30.6586-24.784 47.7526-30.834 4.365-1.804 8.862-3.106 13.468-3.825a97 97 0 0 1 4.236-.787c.03-.103.059-.194.059-.194.411-1.348 9.151-1.41 17.106-1.148 7.954-.262 16.695-.2 17.106 1.148 0 0 .025.091.077.256 1.406.223 2.815.434 4.217.72 4.288.667 8.48 1.832 12.558 3.441 13.494 4.607 26.635 12.033 38.774 21.964 4.978 4.07 9.456 9.139 13.755 14.578 40.191 17.318 84.401-6.701 125.573 6.639 30.294 9.812 55.703 38.808 79.523 67.998 11.379 13.945 21.668 30.652 34.079 41.999 14.775 13.505 30.614 24.173 47.067 31.65.521.24 1.05.468 1.574.697 22.935 6.695 45.848 16.513 68.717 23.659 22.083-9.675 44.952-14.886 65.751-1.712 6.097 3.864 11.764 9.195 17.388 14.635.521-.097 1.05-.16 1.589-.16 2.063 0 4.013.742 5.76 2.032 7.474.879 14.947 1.895 22.406 3.231 30.611 5.491 61.35 10.999 92.144 13.179 42 2.968 95.454 28.186 95.454 28.186h-721.04c-3.219.616-6.486.97-9.804.97-3.319 0-6.586-.348-9.805-.97h-5.748c-3.219.616-6.487.97-9.805.97s-6.585-.348-9.805-.97h-453.191c-31.202.097-62.399.08-93.601 0H-537z"/><path fill="url(#c)" fill-opacity=".6" d="M2204.69 806.593c-61.56-3.026-122.5-9.869-178.93-46.164-22.77-14.645-44.25-33.821-67.02-48.482-83.29-53.628-176.86-43.465-266.96-48.143-19.3-1.003-40.72-4.231-53.64-26.536l2.07 5.687c-5.66-6.968-11.11-14.389-17.08-20.686-12.8-13.494-29.29-23.674-45.61-29.453-4.17-1.723-8.47-2.966-12.87-3.653-1.36-.284-2.71-.534-4.05-.752-.02-.099-.05-.186-.05-.186-.39-1.287-8.74-1.347-16.34-1.096-7.6-.251-15.95-.191-16.34 1.096 0 0-.03.087-.07.245-1.35.213-2.69.415-4.03.687-4.1.638-8.1 1.751-12 3.288-12.89 4.4-25.44 11.493-37.04 20.98-4.75 3.888-9.03 8.729-13.13 13.925-38.4 16.543-80.63-6.401-119.95 6.341-28.94 9.373-53.21 37.07-75.96 64.953-10.87 13.32-20.7 29.279-32.56 40.118-14.11 12.9-29.24 23.09-44.95 30.232-.5.229-1.01.447-1.51.665-21.91 6.396-43.79 15.774-65.64 22.6-21.09-9.242-42.94-14.22-62.8-1.636-5.83 3.691-11.24 8.784-16.61 13.98-.5-.093-1.01-.153-1.52-.153-1.97 0-3.83.709-5.5 1.941-7.14.84-14.28 1.81-21.41 3.086-29.235 5.245-58.597 10.507-88.011 12.589C885.059 824.901 834 848.99 834 848.99h688.74c3.08.588 6.2.926 9.37.926s6.29-.332 9.36-.926h5.49c3.08.588 6.2.926 9.37.926s6.29-.332 9.37-.926h432.89c29.8.092 59.6.076 89.41 0h116.69z"/><path fill="url(#d)" fill-opacity=".3" d="M2204.69 184.178c-61.56-3.026-122.5-9.869-178.93-46.164-22.77-14.645-44.25-33.821-67.02-48.4818-83.29-53.6283-176.86-43.4652-266.96-48.1432-19.3-1.0033-40.72-4.231-53.64-26.5361l2.07 5.6867c-5.66-6.968-11.11-14.3885-17.08-20.6858-12.8-13.4943-29.29-23.6737-45.61-29.453-4.17-1.723-8.47-2.9661-12.87-3.6531a93 93 0 0 0-4.05-.7524 1.7 1.7 0 0 0-.05-.1854c-.39-1.2867-8.74-1.3466-16.34-1.0958-7.6-.2508-15.95-.1909-16.34 1.0958 0 0-.03.0873-.07.2454-1.35.2126-2.69.4144-4.03.687-4.1.6379-8.1 1.7502-12 3.2877-12.89 4.4-25.44 11.4933-37.04 20.9802-4.75 3.8875-9.03 8.729-13.13 13.925-38.4 16.5421-80.63-6.401-119.95 6.341-28.94 9.3724-53.21 37.0698-75.96 64.9526-10.87 13.3198-20.7 29.2782-32.56 40.1172-14.11 12.9-29.24 23.091-44.95 30.233-.5.229-1.01.447-1.51.665-21.91 6.396-43.79 15.774-65.64 22.6-21.09-9.242-42.94-14.22-62.8-1.636-5.83 3.691-11.24 8.784-16.61 13.98-.5-.093-1.01-.153-1.52-.153-1.97 0-3.83.709-5.5 1.941-7.14.84-14.28 1.81-21.41 3.086-29.235 5.245-58.597 10.506-88.011 12.589-40.12 2.835-91.179 26.923-91.179 26.923h688.74c3.08.589 6.2.927 9.37.927s6.29-.332 9.36-.927h5.49c3.08.589 6.2.927 9.37.927s6.29-.332 9.37-.927h432.89c29.8.093 59.6.077 89.41 0h116.69z"/><defs><linearGradient id="a" x1="310.5" x2="317.111" y1="22.8409" y2="322.636" gradientUnits="userSpaceOnUse"><stop stop-color="#fff"/><stop offset="1" stop-color="#fff" stop-opacity="0"/></linearGradient><linearGradient id="b" x1="439.571" x2="-36.1864" y1="351.346" y2="903.407" gradientUnits="userSpaceOnUse"><stop stop-color="#fff"/><stop offset="1" stop-color="#fff" stop-opacity="0"/></linearGradient><linearGradient id="c" x1="1269.48" x2="1519.7" y1="828.008" y2="844.573" gradientUnits="userSpaceOnUse"><stop stop-color="#fff"/><stop offset="1" stop-color="#fff" stop-opacity="0"/></linearGradient><linearGradient id="d" x1="1389.5" x2="1389.73" y1="57.1022" y2="227.267" gradientUnits="userSpaceOnUse"><stop stop-color="#fff"/><stop offset="1" stop-color="#fff" stop-opacity="0"/></linearGradient></defs></svg>