<svg width="1440" height="804" viewBox="0 0 1440 804" fill="none" xmlns="http://www.w3.org/2000/svg">
<path d="M-537 252.719C-472.56 249.551 -408.758 242.388 -349.685 204.39C-325.843 189.059 -303.36 168.984 -279.522 153.635C-192.327 97.4921 -94.3688 108.132 -0.0377197 103.234C20.1661 102.184 42.5908 98.805 56.1139 75.4539L53.9482 81.4073C59.8765 74.1125 65.5735 66.3441 71.8284 59.7515C85.223 45.6244 102.487 34.9677 119.581 28.9173C123.946 27.1136 128.443 25.8122 133.049 25.093C134.474 24.7962 135.883 24.5336 137.285 24.3053C137.315 24.2026 137.344 24.1112 137.344 24.1112C137.755 22.7642 146.495 22.7014 154.45 22.964C162.404 22.7014 171.145 22.7642 171.556 24.1112C171.556 24.1112 171.581 24.2025 171.633 24.3681C173.039 24.5907 174.448 24.8019 175.85 25.0873C180.138 25.7551 184.33 26.9195 188.408 28.5292C201.902 33.1355 215.043 40.5614 227.182 50.4932C232.16 54.563 236.638 59.6316 240.937 65.0712C281.128 82.389 325.338 58.3701 366.51 71.7095C396.804 81.5214 422.213 110.518 446.033 139.708C457.412 153.652 467.701 170.359 480.112 181.707C494.887 195.212 510.726 205.88 527.179 213.357C527.7 213.597 528.228 213.825 528.753 214.053C551.688 220.749 574.601 230.566 597.47 237.713C619.553 228.038 642.422 222.826 663.221 236C669.318 239.865 674.985 245.196 680.609 250.635C681.13 250.538 681.659 250.476 682.198 250.476C684.261 250.476 686.211 251.218 687.958 252.508C695.432 253.387 702.905 254.403 710.364 255.738C740.975 261.229 771.714 266.737 802.508 268.918C844.508 271.886 897.962 297.104 897.962 297.104H176.922C173.703 297.72 170.436 298.074 167.118 298.074C163.799 298.074 160.532 297.726 157.313 297.104H151.565C148.346 297.72 145.078 298.074 141.76 298.074C138.442 298.074 135.175 297.726 131.955 297.104H-321.236C-352.438 297.201 -383.635 297.183 -414.837 297.104H-537V252.719Z" fill="url(#paint0_linear_2005_5)" fill-opacity="0.3"/>
<path d="M-537 678.702C-472.56 675.534 -408.758 668.371 -349.685 630.373C-325.843 615.042 -303.36 594.967 -279.522 579.618C-192.327 523.475 -94.3688 534.115 -0.0377197 529.218C20.1661 528.167 42.5908 524.788 56.1139 501.437L53.9482 507.391C59.8765 500.096 65.5734 492.327 71.8284 485.735C85.223 471.608 102.487 460.951 119.581 454.901C123.946 453.097 128.443 451.795 133.049 451.076C134.474 450.779 135.883 450.517 137.285 450.289C137.315 450.186 137.344 450.095 137.344 450.095C137.755 448.747 146.495 448.685 154.45 448.947C162.404 448.685 171.145 448.747 171.556 450.095C171.556 450.095 171.581 450.186 171.633 450.351C173.039 450.574 174.448 450.785 175.85 451.071C180.138 451.738 184.33 452.903 188.408 454.512C201.902 459.119 215.043 466.545 227.182 476.476C232.16 480.546 236.638 485.615 240.937 491.054C281.128 508.372 325.338 484.353 366.51 497.693C396.804 507.505 422.213 536.501 446.033 565.691C457.412 579.636 467.701 596.343 480.112 607.69C494.887 621.195 510.726 631.863 527.179 639.34C527.7 639.58 528.229 639.808 528.753 640.037C551.688 646.732 574.601 656.55 597.47 663.696C619.553 654.021 642.422 648.81 663.221 661.984C669.318 665.848 674.985 671.179 680.609 676.619C681.13 676.522 681.659 676.459 682.198 676.459C684.261 676.459 686.211 677.201 687.958 678.491C695.432 679.37 702.905 680.386 710.364 681.722C740.975 687.213 771.714 692.721 802.508 694.901C844.508 697.869 897.962 723.087 897.962 723.087H176.922C173.703 723.703 170.436 724.057 167.118 724.057C163.799 724.057 160.532 723.709 157.313 723.087H151.565C148.346 723.703 145.078 724.057 141.76 724.057C138.442 724.057 135.175 723.709 131.955 723.087H-321.236C-352.438 723.184 -383.635 723.167 -414.837 723.087H-537V678.702Z" fill="url(#paint1_linear_2005_5)" fill-opacity="0.7"/>
<path d="M2204.69 806.593C2143.13 803.567 2082.19 796.724 2025.76 760.429C2002.99 745.784 1981.51 726.608 1958.74 711.947C1875.45 658.319 1781.88 668.482 1691.78 663.804C1672.48 662.801 1651.06 659.573 1638.14 637.268L1640.21 642.955C1634.55 635.987 1629.1 628.566 1623.13 622.269C1610.33 608.775 1593.84 598.595 1577.52 592.816C1573.35 591.093 1569.05 589.85 1564.65 589.163C1563.29 588.879 1561.94 588.629 1560.6 588.411C1560.58 588.312 1560.55 588.225 1560.55 588.225C1560.16 586.938 1551.81 586.878 1544.21 587.129C1536.61 586.878 1528.26 586.938 1527.87 588.225C1527.87 588.225 1527.84 588.312 1527.8 588.47C1526.45 588.683 1525.11 588.885 1523.77 589.157C1519.67 589.795 1515.67 590.908 1511.77 592.445C1498.88 596.845 1486.33 603.938 1474.73 613.425C1469.98 617.313 1465.7 622.154 1461.6 627.35C1423.2 643.893 1380.97 620.949 1341.65 633.691C1312.71 643.064 1288.44 670.761 1265.69 698.644C1254.82 711.964 1244.99 727.923 1233.13 738.762C1219.02 751.662 1203.89 761.852 1188.18 768.994C1187.68 769.223 1187.17 769.441 1186.67 769.659C1164.76 776.055 1142.88 785.433 1121.03 792.259C1099.94 783.017 1078.09 778.039 1058.23 790.623C1052.4 794.314 1046.99 799.407 1041.62 804.603C1041.12 804.51 1040.61 804.45 1040.1 804.45C1038.13 804.45 1036.27 805.159 1034.6 806.391C1027.46 807.231 1020.32 808.201 1013.19 809.477C983.955 814.722 954.593 819.984 925.179 822.066C885.059 824.901 834 848.99 834 848.99H1522.74C1525.82 849.578 1528.94 849.916 1532.11 849.916C1535.28 849.916 1538.4 849.584 1541.47 848.99H1546.96C1550.04 849.578 1553.16 849.916 1556.33 849.916C1559.5 849.916 1562.62 849.584 1565.7 848.99H1998.59C2028.39 849.082 2058.19 849.066 2088 848.99H2204.69V806.593Z" fill="url(#paint2_linear_2005_5)" fill-opacity="0.6"/>
<path d="M2204.69 184.178C2143.13 181.152 2082.19 174.309 2025.76 138.014C2002.99 123.369 1981.51 104.193 1958.74 89.5322C1875.45 35.9039 1781.88 46.067 1691.78 41.389C1672.48 40.3857 1651.06 37.158 1638.14 14.8529L1640.21 20.5396C1634.55 13.5716 1629.1 6.1511 1623.13 -0.146236C1610.33 -13.6405 1593.84 -23.8199 1577.52 -29.5992C1573.35 -31.3222 1569.05 -32.5653 1564.65 -33.2523C1563.29 -33.5358 1561.94 -33.7866 1560.6 -34.0047C1560.58 -34.1028 1560.55 -34.1901 1560.55 -34.1901C1560.16 -35.4768 1551.81 -35.5367 1544.21 -35.2859C1536.61 -35.5367 1528.26 -35.4768 1527.87 -34.1901C1527.87 -34.1901 1527.84 -34.1028 1527.8 -33.9447C1526.45 -33.7321 1525.11 -33.5303 1523.77 -33.2577C1519.67 -32.6198 1515.67 -31.5075 1511.77 -29.97C1498.88 -25.57 1486.33 -18.4767 1474.73 -8.98978C1469.98 -5.10233 1465.7 -0.260738 1461.6 4.93525C1423.2 21.4773 1380.97 -1.46571 1341.65 11.2762C1312.71 20.6486 1288.44 48.346 1265.69 76.2288C1254.82 89.5486 1244.99 105.507 1233.13 116.346C1219.02 129.246 1203.89 139.437 1188.18 146.579C1187.68 146.808 1187.17 147.026 1186.67 147.244C1164.76 153.64 1142.88 163.018 1121.03 169.844C1099.94 160.602 1078.09 155.624 1058.23 168.208C1052.4 171.899 1046.99 176.992 1041.62 182.188C1041.12 182.095 1040.61 182.035 1040.1 182.035C1038.13 182.035 1036.27 182.744 1034.6 183.976C1027.46 184.816 1020.32 185.786 1013.19 187.062C983.955 192.307 954.593 197.568 925.179 199.651C885.059 202.486 834 226.574 834 226.574H1522.74C1525.82 227.163 1528.94 227.501 1532.11 227.501C1535.28 227.501 1538.4 227.169 1541.47 226.574H1546.96C1550.04 227.163 1553.16 227.501 1556.33 227.501C1559.5 227.501 1562.62 227.169 1565.7 226.574H1998.59C2028.39 226.667 2058.19 226.651 2088 226.574H2204.69V184.178Z" fill="url(#paint3_linear_2005_5)" fill-opacity="0.3"/>
<defs>
<linearGradient id="paint0_linear_2005_5" x1="310.5" y1="22.8409" x2="317.111" y2="322.636" gradientUnits="userSpaceOnUse">
<stop stop-color="white"/>
<stop offset="1" stop-color="white" stop-opacity="0"/>
</linearGradient>
<linearGradient id="paint1_linear_2005_5" x1="439.571" y1="351.346" x2="-36.1864" y2="903.407" gradientUnits="userSpaceOnUse">
<stop stop-color="white"/>
<stop offset="1" stop-color="white" stop-opacity="0"/>
</linearGradient>
<linearGradient id="paint2_linear_2005_5" x1="1269.48" y1="828.008" x2="1519.7" y2="844.573" gradientUnits="userSpaceOnUse">
<stop stop-color="white"/>
<stop offset="1" stop-color="white" stop-opacity="0"/>
</linearGradient>
<linearGradient id="paint3_linear_2005_5" x1="1389.5" y1="57.1022" x2="1389.73" y2="227.267" gradientUnits="userSpaceOnUse">
<stop stop-color="white"/>
<stop offset="1" stop-color="white" stop-opacity="0"/>
</linearGradient>
</defs>
</svg>
